<svg width="50" height="50" viewBox="0 0 48 13" xmlns="http://www.w3.org/2000/svg" id="icon"><path d="M10.18 11.223h-.05c-.545 0-.842-.33-.842-.843V.454A.296.296 0 0 0 8.99.157H7.685a.296.296 0 0 0-.298.297v10c0 1.414.744 2.372 2.512 2.372h.288c.157 0 .29-.132.29-.29v-1.024a.29.29 0 0 0-.298-.29zm23.756.174c-1.33 0-2.33-1.15-2.33-2.827v-.297c0-1.686 1-2.827 2.33-2.827s2.256 1.042 2.256 2.976c0 1.925-.926 2.975-2.256 2.975zm4.23-2.975c0-2.868-1.544-4.587-3.94-4.587-1.124 0-1.992.388-2.62.9V.455a.296.296 0 0 0-.298-.298h-1.305a.296.296 0 0 0-.298.297v12.083c0 .157.133.29.298.29h1.305a.295.295 0 0 0 .298-.29v-.43c.628.505 1.496.893 2.62.893 2.396 0 3.94-1.72 3.94-4.578zM28.12 4.008h-1.39a.467.467 0 0 0-.412.207l-2.09 2.76-2.017-2.76a.494.494 0 0 0-.404-.207h-1.628a.197.197 0 0 0-.165.306l3.057 4.182-3.05 4.025c-.098.125-.015.306.158.306h1.388a.502.502 0 0 0 .414-.198l2.09-2.77 2.016 2.77a.47.47 0 0 0 .397.198h1.636a.19.19 0 0 0 .156-.297L25.22 8.34l3.048-4.018c.1-.132.024-.314-.15-.314zM5.643.033C5.478.008 5.254 0 4.768 0c-1.868 0-2.975 1.24-3 2.917v1.09H.298a.296.296 0 0 0-.298.3V5.32c0 .157.132.29.297.29h1.47v6.925c0 .157.133.29.29.29H3.37a.295.295 0 0 0 .3-.29V5.612h1.94a.295.295 0 0 0 .298-.29V4.306a.296.296 0 0 0-.297-.298H3.67v-.72c0-1.106.528-1.685 1.56-1.685.14 0 .257.008.356.017.19.008.322-.133.322-.29V.323a.292.292 0 0 0-.264-.29zm38.11 5.413c1.097 0 1.89.86 2.007 2.1h-4.08c.246-1.38 1.073-2.1 2.073-2.1zm-.26-1.61c-2.494 0-4.08 1.9-4.08 4.594 0 2.512 1.47 4.57 4.412 4.57 1.75 0 2.776-.67 3.198-1.074.107-.108.132-.257.04-.38l-.62-.86c-.106-.15-.305-.157-.437-.04-.372.32-1.157.75-2.115.75-1.42 0-2.256-.86-2.463-2.247h5.66c.223 0 .38-.092.396-.365.008-.132.017-.314.017-.537 0-2.71-1.43-4.413-4.008-4.413zm-28.092 1.61c1.107 0 1.892.86 2.008 2.1h-4.074c.248-1.38 1.075-2.1 2.066-2.1zm-.025-1.61c-2.503 0-4.09 1.9-4.09 4.594 0 2.512 1.47 4.57 4.413 4.57 1.76 0 2.784-.67 3.197-1.074.116-.108.14-.257.05-.38l-.62-.86c-.107-.15-.305-.157-.438-.04-.372.32-1.166.75-2.124.75-1.413 0-2.248-.86-2.454-2.247h5.66c.223 0 .372-.092.396-.365.01-.132.01-.314.01-.537 0-2.71-1.43-4.413-4-4.413z" fill="#FFF" fill-rule="evenodd"/></svg>